<?xml version="1.0" encoding="utf-8"?>
<!-- Generator: Adobe Illustrator 25.4.1, SVG Export Plug-In . SVG Version: 6.00 Build 0)  -->
<svg version="1.1" id="Capa_1" xmlns="http://www.w3.org/2000/svg" xmlns:xlink="http://www.w3.org/1999/xlink" x="0px" y="0px"
	 viewBox="0 0 500 500" style="enable-background:new 0 0 500 500;" xml:space="preserve">
<style type="text/css">
	.st0{fill:#BEC9B8;}
	.st1{fill:#39A900;}
</style>
<circle class="st0" cx="250.1" cy="250.1" r="249.9"/>
<path class="st1" d="M250,0.1C112,0.1,0.1,112,0.1,250S112,499.9,250,499.9S499.9,388,499.9,250S388,0.1,250,0.1z M250,471
	c-122.1,0-221-99-221-221s99-221,221-221s221,99,221,221S372.1,471,250,471z"/>
<path class="st1" d="M250,92.7c-57.5,0-104.1,46.6-104.1,104.1c0,57.5,46.6,104.1,104.1,104.1s104.1-46.6,104.1-104.1
	C354.1,139.3,307.5,92.7,250,92.7z M250,272.2c-41.6,0-75.4-33.8-75.4-75.4c0-41.6,33.8-75.4,75.4-75.4s75.4,33.8,75.4,75.4
	C325.4,238.4,291.6,272.2,250,272.2z"/>
<path class="st1" d="M250,272.2c-67.3,0-125.4,38.9-153.3,95.4c6.4,8.3,13.3,16,20.9,23.2c20.9-52.7,72.3-89.9,132.4-89.9
	s111.4,37.3,132.4,89.9c7.6-7.1,14.6-14.9,20.9-23.2C375.4,311.1,317.3,272.2,250,272.2z"/>
</svg>
